<?xml version="1.0" encoding="UTF-8"?>
<!DOCTYPE svg PUBLIC "-//W3C//DTD SVG 1.1//EN" "http://www.w3.org/Graphics/SVG/1.1/DTD/svg11.dtd">
<!-- Creator: CorelDRAW 2018 (64-Bit) -->
<svg xmlns="http://www.w3.org/2000/svg" xml:space="preserve" width="300mm" height="130mm" version="1.1" style="shape-rendering:geometricPrecision; text-rendering:geometricPrecision; image-rendering:optimizeQuality; fill-rule:evenodd; clip-rule:evenodd"
viewBox="0 0 30000 13000"
 xmlns:xlink="http://www.w3.org/1999/xlink">
 <defs>
  <style type="text/css">
   <![CDATA[
    .fil2 {fill:#FC6D0D}
    .fil3 {fill:white}
    .fil0 {fill:#FC6D0D;fill-rule:nonzero}
    .fil1 {fill:white;fill-rule:nonzero}
   ]]>
  </style>
 </defs>
 <g id="Слой_x0020_1">
  <metadata id="CorelCorpID_0Corel-Layer"/>
  <polygon class="fil0" points="28047.33,10481.47 28047.33,12705.44 25318.67,12705.46 25318.67,11709.36 27047.33,11709.35 27047.33,10481.47 "/>
  <polygon class="fil1" points="2919.77,10481.47 2919.77,11709.35 4715.47,11709.36 4715.47,12705.46 1919.77,12705.44 1919.77,10481.47 "/>
  <polygon class="fil1" points="15203.5,2834.41 15203.5,1174.12 2917.83,1174.12 2917.82,2640.3 1921.72,2640.3 1921.74,174.12 16203.5,174.12 16203.5,2834.41 "/>
  <path class="fil1" d="M5571.94 12880.46l0 -1348.11 337.52 0 0 600.04 457.92 -600.04 378.97 0 -477.66 623.06 596.09 725.05 -438.19 0 -517.13 -633.59 0 633.59 -337.52 0zm1363.56 0l0 -1348.11 902.03 0 0 248.7 -564.51 0 0 274.36 538.85 0 0 250.67 -538.85 0 0 321.73 580.3 0 0 252.65 -917.82 0zm1133.29 0l0 -1348.11 902.03 0 0 248.7 -564.51 0 0 274.36 538.85 0 0 250.67 -538.85 0 0 321.73 580.3 0 0 252.65 -917.82 0zm1632.66 -789.53c63.49,0 110.54,-12.82 141.46,-38.16 30.59,-25.33 46.06,-63.81 46.06,-115.79 0,-49.35 -16.13,-87.51 -48.03,-114.15 -32.24,-26.65 -77.97,-39.81 -137.84,-39.81l-161.53 0 0 307.91 159.88 0zm-499.37 789.53l0 -1348.11 497.4 0c182.58,0 317.45,33.23 405.29,99.35 87.83,66.12 131.58,167.11 131.58,303.64 0,139.81 -47.04,244.75 -140.8,314.16 -93.75,69.41 -234.87,103.95 -423.05,103.95l-130.93 0 0 527.01 -339.49 0zm3028.14 -1348.11l0 771.75c0,188.83 -55.92,335.89 -168.1,441.48 -112.17,105.6 -268.76,158.56 -469.76,158.56 -200.67,0 -356.93,-52.96 -469.11,-158.56 -112.18,-105.59 -168.1,-252.65 -168.1,-441.48l0 -771.75 339.49 0 0 758.27c0,107.24 25.66,189.16 76.98,246.07 51.32,56.91 125.99,85.2 223.37,85.2 97.04,0 171.06,-28.29 221.72,-84.87 50.66,-56.26 75.99,-138.5 75.99,-246.4l0 -758.27 337.52 0zm755.98 558.58c63.49,0 110.53,-12.82 141.45,-38.16 30.6,-25.33 46.06,-63.81 46.06,-115.79 0,-49.35 -16.13,-87.51 -48.03,-114.15 -32.24,-26.65 -77.97,-39.81 -137.84,-39.81l-161.53 0 0 307.91 159.89 0zm-499.38 789.53l0 -1348.11 497.4 0c182.58,0 317.45,33.23 405.29,99.35 87.83,66.12 131.59,167.11 131.59,303.64 0,139.81 -47.05,244.75 -140.8,314.16 -93.76,69.41 -234.88,103.95 -423.06,103.95l-130.93 0 0 527.01 -339.49 0zm2120.2 0l0 -609.91 -530.95 -738.2 404.62 0 296.07 436.54 303.64 -436.54 401.01 0 -536.87 736.23 0 611.88 -337.52 0zm1175.06 -673.07c0,120.07 36.19,219.09 108.23,296.4 72.38,77.31 164.49,116.12 276.34,116.12 112.17,0 204.61,-38.81 276.99,-116.12 72.04,-77.31 108.23,-176.33 108.23,-296.4 0,-120.73 -36.19,-220.08 -108.23,-297.71 -72.38,-77.97 -164.82,-116.79 -276.99,-116.79 -111.85,0 -203.96,38.82 -276.34,116.79 -72.04,77.63 -108.23,176.98 -108.23,297.71zm-347.39 0c0,-100.33 17.77,-192.78 52.97,-277.98 35.53,-85.2 88.16,-161.19 158.23,-227.97 68.1,-64.15 145.41,-112.18 231.92,-143.43 86.52,-31.58 182.58,-47.37 288.84,-47.37 107.24,0 204.29,15.79 291.13,47.7 86.85,31.91 164.16,79.61 232.25,143.1 69.41,66.78 122.05,142.77 157.58,227.97 35.86,85.2 53.62,177.65 53.62,277.98 0,99.68 -17.76,191.79 -53.62,276.99 -35.53,85.21 -88.17,160.54 -157.58,226 -68.75,64.15 -146.72,112.51 -233.89,145.07 -86.85,32.57 -183.57,48.69 -289.49,48.69 -105.6,0 -201.33,-16.12 -287.85,-48.02 -86.52,-32.24 -164.15,-80.93 -232.91,-145.74 -69.41,-65.46 -122.05,-140.79 -157.57,-226 -35.86,-85.2 -53.63,-177.31 -53.63,-276.99zm2929.13 -675.04l0 771.75c0,188.83 -55.92,335.89 -168.11,441.48 -112.17,105.6 -268.76,158.56 -469.76,158.56 -200.67,0 -356.93,-52.96 -469.1,-158.56 -112.18,-105.59 -168.11,-252.65 -168.11,-441.48l0 -771.75 339.49 0 0 758.27c0,107.24 25.67,189.16 76.99,246.07 51.31,56.91 125.99,85.2 223.36,85.2 97.05,0 171.06,-28.29 221.73,-84.87 50.66,-56.26 75.99,-138.5 75.99,-246.4l0 -758.27 337.52 0zm764.19 552.66c62.51,0 108.89,-13.15 139.48,-39.14 30.6,-25.99 45.73,-65.47 45.73,-118.76 0,-50.66 -15.79,-89.48 -47.7,-116.12 -31.91,-26.65 -77.64,-39.81 -137.51,-39.81l-162.18 0 0 313.83 162.18 0zm-499.7 795.45l0 -1348.11 497.73 0c182.91,0 318.11,31.91 405.62,95.4 87.17,63.49 130.92,162.18 130.92,295.74 0,74.35 -19.4,138.17 -57.9,191.13 -38.48,52.97 -97.37,97.7 -176.98,134.22 33.56,12.17 63.49,32.57 90.14,61.19 26.65,28.62 49.67,64.81 69.74,108.56l215.14 461.87 -380.61 0 -171.72 -388.51c-27.63,-61.85 -59.22,-104.28 -94.42,-127.31 -35.53,-23.36 -85.53,-34.87 -150.66,-34.87 -4.94,0 -11.85,0.33 -20.07,0.98 -8.55,0.66 -14.8,0.99 -19.41,0.99l0 548.72 -337.52 0zm2327.12 -795.45c62.5,0 108.88,-13.15 139.47,-39.14 30.6,-25.99 45.73,-65.47 45.73,-118.76 0,-50.66 -15.79,-89.48 -47.7,-116.12 -31.91,-26.65 -77.64,-39.81 -137.5,-39.81l-162.19 0 0 313.83 162.19 0zm-499.71 795.45l0 -1348.11 497.73 0c182.91,0 318.11,31.91 405.62,95.4 87.17,63.49 130.92,162.18 130.92,295.74 0,74.35 -19.4,138.17 -57.9,191.13 -38.48,52.97 -97.37,97.7 -176.98,134.22 33.56,12.17 63.49,32.57 90.14,61.19 26.65,28.62 49.67,64.81 69.74,108.56l215.15 461.87 -380.62 0 -171.72 -388.51c-27.63,-61.85 -59.22,-104.28 -94.42,-127.31 -35.52,-23.36 -85.53,-34.87 -150.66,-34.87 -4.94,0 -11.85,0.33 -20.07,0.98 -8.55,0.66 -14.8,0.99 -19.41,0.99l0 548.72 -337.52 0zm1290.54 0l0 -1348.11 347.39 0 0 1348.11 -347.39 0zm597.73 -107.25l0 -299.35c101.65,63.16 187.18,106.91 256.92,132.24 69.75,25 137.18,37.5 202.97,37.5 66.13,0 116.13,-10.2 150.34,-30.26 33.89,-20.4 50.99,-50.34 50.99,-90.14 0,-32.24 -10.52,-58.22 -31.91,-77.63 -21.05,-19.74 -70.4,-43.1 -148.03,-70.08 -192.12,-67.44 -324.36,-136.52 -396.74,-206.92 -72.04,-70.39 -108.22,-160.2 -108.22,-269.42 0,-115.14 47.04,-208.56 141.12,-280.61 94.08,-72.04 216.46,-107.9 367.46,-107.9 76.32,0 153.3,9.21 230.27,27.96 76.98,18.75 153.3,46.06 228.31,81.91l0 276.99c-90.47,-45.72 -171.73,-79.6 -243.77,-101.32 -71.71,-22.04 -137.18,-32.89 -196.39,-32.89 -64.15,0 -113.16,9.21 -146.72,27.96 -33.88,18.75 -50.66,45.39 -50.66,79.94 0,28.29 15.13,54.94 45.39,79.61 29.95,25 75.67,48.35 136.53,71.05 12.83,5.27 32.56,12.5 58.88,22.04 128.63,47.71 220.74,88.5 276.66,122.38 58.56,35.86 102.64,82.24 132.58,138.82 29.93,56.59 44.74,122.71 44.74,198.37 0,124.68 -47.05,222.38 -141.13,293.77 -94.41,71.39 -225.01,106.91 -392.13,106.91 -83.56,0 -164.15,-10.85 -242.45,-32.56 -77.96,-22.05 -152.97,-54.61 -225.01,-98.37zm1200.4 107.25l0 -1348.11 902.03 0 0 248.7 -564.51 0 0 274.36 538.85 0 0 250.67 -538.85 0 0 321.73 580.29 0 0 252.65 -917.81 0z"/>
  <g id="_891781536">
   <polygon class="fil2" points="17102.18,3404.59 15703.5,5318.23 14321.57,3404.59 12445.41,3404.59 14535.38,6926.76 15105.5,9655.3 16274.09,9655.3 16844.24,6926.76 18961.56,3404.59 "/>
   <path class="fil1" d="M11787.7 3477.16l0 3434.93c0,840.44 -248.9,1494.92 -748.19,1964.92 -499.28,470 -1196.22,705.73 -2090.83,705.73 -893.14,0 -1588.62,-235.73 -2087.9,-705.73 -499.29,-470 -748.19,-1124.48 -748.19,-1964.92l0 -3434.93 1511.02 0 0 3374.9c0,477.32 114.21,841.9 342.62,1095.2 228.41,253.3 560.77,379.22 994.16,379.22 431.93,0 761.37,-125.92 986.85,-377.76 225.49,-250.37 338.23,-616.41 338.23,-1096.66l0 -3374.9 1502.23 0z"/>
   <path class="fil3" d="M2494.27 5890.77l-789.66 0 0 -1331.95 789.66 0c272.65,0 478.24,58.12 613.81,172.84 137.08,114.73 205.64,290.53 205.64,525.91 0,213.08 -67.05,371 -202.62,475.27 -135.63,105.79 -341.22,157.93 -616.83,157.93zm2356.99 -846.22c0,-518.53 -204.13,-908.87 -613.81,-1172.57 -408.27,-263.71 -1014.64,-394.81 -1817.67,-394.81l-2252.71 0 0 6105.55 2727.99 0c806.04,0 1409.4,-146.02 1810.18,-436.55 400.79,-290.53 601.91,-728.53 601.91,-1314.06 0,-400.79 -104.28,-733.01 -314.34,-996.72 -208.61,-263.76 -527.41,-461.91 -953.51,-595.98 263.7,-119.19 466.33,-280.08 604.86,-484.21 138.59,-204.14 207.1,-441.02 207.1,-710.65zm-3146.65 3420.75l0 -1483.94 876.06 0c381.45,0 661.53,62.59 840.29,187.76 178.82,125.12 268.18,318.81 268.18,581.06 0,254.77 -84.89,438.01 -253.26,549.77 -168.37,110.25 -449.96,165.35 -846.27,165.35l-885 0z"/>
   <polygon class="fil3" points="19761.91,3477.17 19761.91,9582.72 23918.69,9582.72 23918.69,8438.48 21290.51,8438.48 21290.51,6981.36 23730.99,6981.36 23730.99,5846.06 21290.51,5846.06 21290.51,4603.53 23847.17,4603.53 23847.17,3477.17 "/>
   <path class="fil3" d="M25227.59 5133.9c0,494.67 163.84,901.38 490.14,1220.24 327.8,318.81 926.74,631.69 1796.83,937.14 351.61,122.16 575.08,227.94 670.41,317.35 96.85,87.91 144.51,205.59 144.51,351.61 0,180.28 -77.45,315.85 -230.9,408.22 -154.96,90.87 -381.4,137.08 -680.87,137.08 -298.01,0 -603.41,-56.61 -919.25,-169.88 -315.85,-114.67 -703.22,-312.83 -1163.63,-598.89l0 1355.75c326.29,198.16 666,345.69 1019.11,445.49 354.58,98.36 719.6,147.53 1098.03,147.53 756.86,0 1348.32,-160.94 1775.93,-484.22 426.1,-323.33 639.18,-765.8 639.18,-1330.49 0,-342.67 -67.06,-642.14 -202.63,-898.41 -135.57,-256.22 -335.24,-466.34 -600.4,-628.73 -253.31,-153.45 -670.47,-338.2 -1253.04,-554.24 -119.19,-43.19 -208.55,-75.94 -266.67,-99.8 -275.61,-102.82 -482.71,-208.61 -618.28,-321.83 -137.07,-111.76 -205.64,-232.41 -205.64,-360.55 0,-156.41 76,-277.11 229.45,-362.05 152,-84.89 373.96,-126.63 664.49,-126.63 268.18,0 564.69,49.17 889.48,148.98 326.29,98.35 694.27,251.8 1104,458.9l0 -1254.49c-339.71,-162.4 -685.34,-286.06 -1033.98,-371 -348.65,-84.89 -697.3,-126.63 -1042.93,-126.63 -683.88,0 -1238.12,162.39 -1664.22,488.69 -426.1,326.29 -639.12,749.43 -639.12,1270.86z"/>
   <polygon class="fil2" points="17102.19,2640.3 14321.57,2640.3 15703.5,4553.94 "/>
  </g>
  <polygon class="fil0" points="15203.5,2834.41 15203.5,174.12 28045.36,174.12 28045.38,2640.3 27049.28,2640.3 27049.27,1174.12 16203.5,1174.12 16203.5,2834.41 "/>
 </g>
</svg>
